<mxfile host="app.diagrams.net" modified="2023-05-03T03:37:39.644Z" agent="Mozilla/5.0 (Windows NT 10.0; Win64; x64) AppleWebKit/537.36 (KHTML, like Gecko) Chrome/112.0.0.0 Safari/537.36" version="21.2.6" etag="AE0BGbUcJ78df4xQINCx" type="github">
  <diagram name="Trang-1" id="DHKKf4e2bnBD3EGDiVos">
    <mxGraphModel>
      <root>
        <mxCell id="0" />
        <mxCell id="1" parent="0" />
      </root>
    </mxGraphModel>
  </diagram>
</mxfile>
